<mxfile host="app.diagrams.net" modified="2024-05-07T15:20:42.485Z" agent="Mozilla/5.0 (Windows NT 10.0; Win64; x64) AppleWebKit/537.36 (KHTML, like Gecko) Chrome/124.0.0.0 Safari/537.36 Edg/124.0.0.0" etag="DGHmCoGuvlkm1d6qvRH2" version="24.3.1" type="device">
  <diagram id="R2lEEEUBdFMjLlhIrx00" name="Page-1">
    <mxGraphModel dx="1783" dy="1684" grid="1" gridSize="10" guides="1" tooltips="1" connect="1" arrows="1" fold="1" page="1" pageScale="1" pageWidth="850" pageHeight="1100" math="0" shadow="0" extFonts="Permanent Marker^https://fonts.googleapis.com/css?family=Permanent+Marker">
      <root>
        <mxCell id="0" />
        <mxCell id="1" parent="0" />
        <mxCell id="jfs6eCbpeO65IJsUBb_G-45" value="" style="group" parent="1" vertex="1" connectable="0">
          <mxGeometry x="-40" y="290" width="370" height="270" as="geometry" />
        </mxCell>
        <mxCell id="jfs6eCbpeO65IJsUBb_G-1" value="BILL" style="rounded=0;whiteSpace=wrap;html=1;fillColor=#dae8fc;strokeColor=#6c8ebf;" parent="jfs6eCbpeO65IJsUBb_G-45" vertex="1">
          <mxGeometry x="90" y="90" width="120" height="60" as="geometry" />
        </mxCell>
        <mxCell id="jfs6eCbpeO65IJsUBb_G-11" value="&lt;u&gt;BillNo&lt;/u&gt;" style="ellipse;whiteSpace=wrap;html=1;fillColor=#e1d5e7;strokeColor=#9673a6;" parent="jfs6eCbpeO65IJsUBb_G-45" vertex="1">
          <mxGeometry x="40" y="190" width="120" height="80" as="geometry" />
        </mxCell>
        <mxCell id="jfs6eCbpeO65IJsUBb_G-12" value="Date" style="ellipse;whiteSpace=wrap;html=1;fillColor=#e1d5e7;strokeColor=#9673a6;" parent="jfs6eCbpeO65IJsUBb_G-45" vertex="1">
          <mxGeometry x="180" y="180" width="120" height="80" as="geometry" />
        </mxCell>
        <mxCell id="jfs6eCbpeO65IJsUBb_G-13" value="Amount" style="ellipse;whiteSpace=wrap;html=1;fillColor=#e1d5e7;strokeColor=#9673a6;" parent="jfs6eCbpeO65IJsUBb_G-45" vertex="1">
          <mxGeometry x="250" y="70" width="120" height="80" as="geometry" />
        </mxCell>
        <mxCell id="jfs6eCbpeO65IJsUBb_G-29" value="" style="endArrow=none;html=1;rounded=0;entryX=0.25;entryY=1;entryDx=0;entryDy=0;exitX=0.5;exitY=0;exitDx=0;exitDy=0;" parent="jfs6eCbpeO65IJsUBb_G-45" source="jfs6eCbpeO65IJsUBb_G-11" target="jfs6eCbpeO65IJsUBb_G-1" edge="1">
          <mxGeometry width="50" height="50" relative="1" as="geometry">
            <mxPoint x="525" y="20" as="sourcePoint" />
            <mxPoint x="560" y="-10" as="targetPoint" />
          </mxGeometry>
        </mxCell>
        <mxCell id="jfs6eCbpeO65IJsUBb_G-30" value="" style="endArrow=none;html=1;rounded=0;entryX=0.75;entryY=1;entryDx=0;entryDy=0;exitX=0.5;exitY=0;exitDx=0;exitDy=0;" parent="jfs6eCbpeO65IJsUBb_G-45" source="jfs6eCbpeO65IJsUBb_G-12" target="jfs6eCbpeO65IJsUBb_G-1" edge="1">
          <mxGeometry width="50" height="50" relative="1" as="geometry">
            <mxPoint x="110" y="200" as="sourcePoint" />
            <mxPoint x="130" y="160" as="targetPoint" />
          </mxGeometry>
        </mxCell>
        <mxCell id="jfs6eCbpeO65IJsUBb_G-31" value="" style="endArrow=none;html=1;rounded=0;entryX=0;entryY=0.5;entryDx=0;entryDy=0;exitX=1;exitY=0.5;exitDx=0;exitDy=0;" parent="jfs6eCbpeO65IJsUBb_G-45" source="jfs6eCbpeO65IJsUBb_G-1" target="jfs6eCbpeO65IJsUBb_G-13" edge="1">
          <mxGeometry width="50" height="50" relative="1" as="geometry">
            <mxPoint x="270" y="-85" as="sourcePoint" />
            <mxPoint x="303" y="-87" as="targetPoint" />
          </mxGeometry>
        </mxCell>
        <mxCell id="jfs6eCbpeO65IJsUBb_G-32" value="Discount" style="ellipse;whiteSpace=wrap;html=1;fillColor=#e1d5e7;strokeColor=#9673a6;" parent="jfs6eCbpeO65IJsUBb_G-45" vertex="1">
          <mxGeometry width="120" height="80" as="geometry" />
        </mxCell>
        <mxCell id="jfs6eCbpeO65IJsUBb_G-33" value="" style="endArrow=none;html=1;rounded=0;entryX=1;entryY=1;entryDx=0;entryDy=0;exitX=0.25;exitY=0;exitDx=0;exitDy=0;" parent="jfs6eCbpeO65IJsUBb_G-45" source="jfs6eCbpeO65IJsUBb_G-1" target="jfs6eCbpeO65IJsUBb_G-32" edge="1">
          <mxGeometry width="50" height="50" relative="1" as="geometry">
            <mxPoint x="110" y="200" as="sourcePoint" />
            <mxPoint x="130" y="160" as="targetPoint" />
          </mxGeometry>
        </mxCell>
        <mxCell id="jfs6eCbpeO65IJsUBb_G-46" value="" style="group" parent="1" vertex="1" connectable="0">
          <mxGeometry x="110" y="-70" width="270" height="270" as="geometry" />
        </mxCell>
        <mxCell id="jfs6eCbpeO65IJsUBb_G-4" value="CUSTOMER" style="rounded=0;whiteSpace=wrap;html=1;fillColor=#dae8fc;strokeColor=#6c8ebf;" parent="jfs6eCbpeO65IJsUBb_G-46" vertex="1">
          <mxGeometry y="110" width="120" height="60" as="geometry" />
        </mxCell>
        <mxCell id="jfs6eCbpeO65IJsUBb_G-19" value="&lt;u&gt;CustomerID&lt;/u&gt;" style="ellipse;whiteSpace=wrap;html=1;strokeColor=#9673a6;fillColor=#e1d5e7;" parent="jfs6eCbpeO65IJsUBb_G-46" vertex="1">
          <mxGeometry x="90" width="120" height="80" as="geometry" />
        </mxCell>
        <mxCell id="jfs6eCbpeO65IJsUBb_G-20" value="CustomerName" style="ellipse;whiteSpace=wrap;html=1;strokeColor=#9673a6;fillColor=#e1d5e7;" parent="jfs6eCbpeO65IJsUBb_G-46" vertex="1">
          <mxGeometry x="150" y="100" width="120" height="80" as="geometry" />
        </mxCell>
        <mxCell id="jfs6eCbpeO65IJsUBb_G-21" value="CustomerPhone" style="ellipse;whiteSpace=wrap;html=1;strokeColor=#9673a6;fillColor=#e1d5e7;" parent="jfs6eCbpeO65IJsUBb_G-46" vertex="1">
          <mxGeometry x="20" y="190" width="120" height="80" as="geometry" />
        </mxCell>
        <mxCell id="jfs6eCbpeO65IJsUBb_G-22" value="" style="endArrow=none;html=1;rounded=0;entryX=0.26;entryY=0.954;entryDx=0;entryDy=0;entryPerimeter=0;" parent="jfs6eCbpeO65IJsUBb_G-46" source="jfs6eCbpeO65IJsUBb_G-4" target="jfs6eCbpeO65IJsUBb_G-19" edge="1">
          <mxGeometry width="50" height="50" relative="1" as="geometry">
            <mxPoint x="340" y="380" as="sourcePoint" />
            <mxPoint x="390" y="330" as="targetPoint" />
          </mxGeometry>
        </mxCell>
        <mxCell id="jfs6eCbpeO65IJsUBb_G-23" value="" style="endArrow=none;html=1;rounded=0;entryX=0.021;entryY=0.288;entryDx=0;entryDy=0;entryPerimeter=0;exitX=1;exitY=0.25;exitDx=0;exitDy=0;" parent="jfs6eCbpeO65IJsUBb_G-46" source="jfs6eCbpeO65IJsUBb_G-4" target="jfs6eCbpeO65IJsUBb_G-20" edge="1">
          <mxGeometry width="50" height="50" relative="1" as="geometry">
            <mxPoint x="99" y="120" as="sourcePoint" />
            <mxPoint x="131" y="86" as="targetPoint" />
          </mxGeometry>
        </mxCell>
        <mxCell id="jfs6eCbpeO65IJsUBb_G-24" value="" style="endArrow=none;html=1;rounded=0;entryX=0.5;entryY=0;entryDx=0;entryDy=0;exitX=0.5;exitY=1;exitDx=0;exitDy=0;" parent="jfs6eCbpeO65IJsUBb_G-46" source="jfs6eCbpeO65IJsUBb_G-4" target="jfs6eCbpeO65IJsUBb_G-21" edge="1">
          <mxGeometry width="50" height="50" relative="1" as="geometry">
            <mxPoint x="130" y="135" as="sourcePoint" />
            <mxPoint x="163" y="133" as="targetPoint" />
          </mxGeometry>
        </mxCell>
        <mxCell id="jfs6eCbpeO65IJsUBb_G-47" value="" style="group" parent="1" vertex="1" connectable="0">
          <mxGeometry x="10" y="600" width="335" height="280" as="geometry" />
        </mxCell>
        <mxCell id="jfs6eCbpeO65IJsUBb_G-5" value="SUPPLIER" style="rounded=0;whiteSpace=wrap;html=1;fillColor=#dae8fc;strokeColor=#6c8ebf;" parent="jfs6eCbpeO65IJsUBb_G-47" vertex="1">
          <mxGeometry x="65" y="110" width="120" height="60" as="geometry" />
        </mxCell>
        <mxCell id="jfs6eCbpeO65IJsUBb_G-15" value="&lt;u&gt;SupplierID&lt;/u&gt;" style="ellipse;whiteSpace=wrap;html=1;fillColor=#e1d5e7;strokeColor=#9673a6;" parent="jfs6eCbpeO65IJsUBb_G-47" vertex="1">
          <mxGeometry x="85" width="120" height="80" as="geometry" />
        </mxCell>
        <mxCell id="jfs6eCbpeO65IJsUBb_G-17" value="SupplierContact" style="ellipse;whiteSpace=wrap;html=1;fillColor=#e1d5e7;strokeColor=#9673a6;" parent="jfs6eCbpeO65IJsUBb_G-47" vertex="1">
          <mxGeometry x="175" y="190" width="120" height="80" as="geometry" />
        </mxCell>
        <mxCell id="jfs6eCbpeO65IJsUBb_G-18" value="Address" style="ellipse;whiteSpace=wrap;html=1;fillColor=#e1d5e7;strokeColor=#9673a6;" parent="jfs6eCbpeO65IJsUBb_G-47" vertex="1">
          <mxGeometry y="200" width="120" height="80" as="geometry" />
        </mxCell>
        <mxCell id="jfs6eCbpeO65IJsUBb_G-25" value="" style="endArrow=none;html=1;rounded=0;entryX=0.256;entryY=0.936;entryDx=0;entryDy=0;entryPerimeter=0;exitX=0.39;exitY=-0.029;exitDx=0;exitDy=0;exitPerimeter=0;" parent="jfs6eCbpeO65IJsUBb_G-47" source="jfs6eCbpeO65IJsUBb_G-5" target="jfs6eCbpeO65IJsUBb_G-15" edge="1">
          <mxGeometry width="50" height="50" relative="1" as="geometry">
            <mxPoint x="-216" y="90" as="sourcePoint" />
            <mxPoint x="-184" y="56" as="targetPoint" />
          </mxGeometry>
        </mxCell>
        <mxCell id="jfs6eCbpeO65IJsUBb_G-27" value="" style="endArrow=none;html=1;rounded=0;entryX=0;entryY=0;entryDx=0;entryDy=0;exitX=0.75;exitY=1;exitDx=0;exitDy=0;" parent="jfs6eCbpeO65IJsUBb_G-47" source="jfs6eCbpeO65IJsUBb_G-5" target="jfs6eCbpeO65IJsUBb_G-17" edge="1">
          <mxGeometry width="50" height="50" relative="1" as="geometry">
            <mxPoint x="195" y="135" as="sourcePoint" />
            <mxPoint x="225" y="110" as="targetPoint" />
          </mxGeometry>
        </mxCell>
        <mxCell id="jfs6eCbpeO65IJsUBb_G-28" value="" style="endArrow=none;html=1;rounded=0;entryX=0.25;entryY=1;entryDx=0;entryDy=0;exitX=0.5;exitY=0;exitDx=0;exitDy=0;" parent="jfs6eCbpeO65IJsUBb_G-47" source="jfs6eCbpeO65IJsUBb_G-18" target="jfs6eCbpeO65IJsUBb_G-5" edge="1">
          <mxGeometry width="50" height="50" relative="1" as="geometry">
            <mxPoint x="195" y="135" as="sourcePoint" />
            <mxPoint x="225" y="110" as="targetPoint" />
          </mxGeometry>
        </mxCell>
        <mxCell id="jfs6eCbpeO65IJsUBb_G-48" value="" style="group" parent="1" vertex="1" connectable="0">
          <mxGeometry x="510" y="710" width="400" height="170" as="geometry" />
        </mxCell>
        <mxCell id="jfs6eCbpeO65IJsUBb_G-2" value="STOCK" style="rounded=0;whiteSpace=wrap;html=1;fillColor=#dae8fc;strokeColor=#6c8ebf;" parent="jfs6eCbpeO65IJsUBb_G-48" vertex="1">
          <mxGeometry x="100" width="120" height="60" as="geometry" />
        </mxCell>
        <mxCell id="jfs6eCbpeO65IJsUBb_G-7" value="QuantityInHand" style="ellipse;whiteSpace=wrap;html=1;strokeColor=#9673a6;fillColor=#e1d5e7;" parent="jfs6eCbpeO65IJsUBb_G-48" vertex="1">
          <mxGeometry y="80" width="120" height="80" as="geometry" />
        </mxCell>
        <mxCell id="jfs6eCbpeO65IJsUBb_G-14" value="LastUpdatedDate" style="ellipse;whiteSpace=wrap;html=1;strokeColor=#9673a6;fillColor=#e1d5e7;" parent="jfs6eCbpeO65IJsUBb_G-48" vertex="1">
          <mxGeometry x="140" y="90" width="120" height="80" as="geometry" />
        </mxCell>
        <mxCell id="jfs6eCbpeO65IJsUBb_G-41" value="" style="endArrow=none;html=1;rounded=0;exitX=0.746;exitY=0.051;exitDx=0;exitDy=0;exitPerimeter=0;entryX=0.25;entryY=1;entryDx=0;entryDy=0;" parent="jfs6eCbpeO65IJsUBb_G-48" source="jfs6eCbpeO65IJsUBb_G-7" target="jfs6eCbpeO65IJsUBb_G-2" edge="1">
          <mxGeometry width="50" height="50" relative="1" as="geometry">
            <mxPoint x="220" y="-20" as="sourcePoint" />
            <mxPoint x="270" y="-70" as="targetPoint" />
          </mxGeometry>
        </mxCell>
        <mxCell id="jfs6eCbpeO65IJsUBb_G-42" value="" style="endArrow=none;html=1;rounded=0;exitX=0.75;exitY=1;exitDx=0;exitDy=0;" parent="jfs6eCbpeO65IJsUBb_G-48" source="jfs6eCbpeO65IJsUBb_G-2" target="jfs6eCbpeO65IJsUBb_G-14" edge="1">
          <mxGeometry width="50" height="50" relative="1" as="geometry">
            <mxPoint x="440" y="-40" as="sourcePoint" />
            <mxPoint x="495" y="-7" as="targetPoint" />
          </mxGeometry>
        </mxCell>
        <mxCell id="jfs6eCbpeO65IJsUBb_G-43" value="&lt;u&gt;StockID&lt;/u&gt;" style="ellipse;whiteSpace=wrap;html=1;strokeColor=#9673a6;fillColor=#e1d5e7;" parent="jfs6eCbpeO65IJsUBb_G-48" vertex="1">
          <mxGeometry x="280" y="80" width="120" height="80" as="geometry" />
        </mxCell>
        <mxCell id="jfs6eCbpeO65IJsUBb_G-44" value="" style="endArrow=none;html=1;rounded=0;exitX=1;exitY=0.5;exitDx=0;exitDy=0;entryX=0;entryY=0;entryDx=0;entryDy=0;" parent="jfs6eCbpeO65IJsUBb_G-48" source="jfs6eCbpeO65IJsUBb_G-2" target="jfs6eCbpeO65IJsUBb_G-43" edge="1">
          <mxGeometry width="50" height="50" relative="1" as="geometry">
            <mxPoint x="200" y="70" as="sourcePoint" />
            <mxPoint x="205" y="100" as="targetPoint" />
          </mxGeometry>
        </mxCell>
        <mxCell id="jfs6eCbpeO65IJsUBb_G-49" value="" style="group" parent="1" vertex="1" connectable="0">
          <mxGeometry x="450" y="400" width="440" height="220" as="geometry" />
        </mxCell>
        <mxCell id="jfs6eCbpeO65IJsUBb_G-3" value="PRODUCT" style="rounded=0;whiteSpace=wrap;html=1;fillColor=#dae8fc;strokeColor=#6c8ebf;" parent="jfs6eCbpeO65IJsUBb_G-49" vertex="1">
          <mxGeometry x="160" y="20" width="120" height="60" as="geometry" />
        </mxCell>
        <mxCell id="jfs6eCbpeO65IJsUBb_G-8" value="&lt;u&gt;ProductID&lt;/u&gt;" style="ellipse;whiteSpace=wrap;html=1;fillColor=#e1d5e7;strokeColor=#9673a6;" parent="jfs6eCbpeO65IJsUBb_G-49" vertex="1">
          <mxGeometry x="30" y="150" width="120" height="80" as="geometry" />
        </mxCell>
        <mxCell id="jfs6eCbpeO65IJsUBb_G-9" value="ProductName" style="ellipse;whiteSpace=wrap;html=1;fillColor=#e1d5e7;strokeColor=#9673a6;" parent="jfs6eCbpeO65IJsUBb_G-49" vertex="1">
          <mxGeometry x="260" y="110" width="120" height="80" as="geometry" />
        </mxCell>
        <mxCell id="jfs6eCbpeO65IJsUBb_G-10" value="ProductPrice" style="ellipse;whiteSpace=wrap;html=1;fillColor=#e1d5e7;strokeColor=#9673a6;" parent="jfs6eCbpeO65IJsUBb_G-49" vertex="1">
          <mxGeometry x="320" width="120" height="80" as="geometry" />
        </mxCell>
        <mxCell id="jfs6eCbpeO65IJsUBb_G-34" value="" style="endArrow=none;html=1;rounded=0;entryX=0.25;entryY=1;entryDx=0;entryDy=0;exitX=0.5;exitY=0;exitDx=0;exitDy=0;" parent="jfs6eCbpeO65IJsUBb_G-49" source="jfs6eCbpeO65IJsUBb_G-8" target="jfs6eCbpeO65IJsUBb_G-3" edge="1">
          <mxGeometry width="50" height="50" relative="1" as="geometry">
            <mxPoint x="115" y="-100" as="sourcePoint" />
            <mxPoint x="150" y="-130" as="targetPoint" />
          </mxGeometry>
        </mxCell>
        <mxCell id="jfs6eCbpeO65IJsUBb_G-35" value="" style="endArrow=none;html=1;rounded=0;entryX=0.373;entryY=0.032;entryDx=0;entryDy=0;exitX=0.75;exitY=1;exitDx=0;exitDy=0;entryPerimeter=0;" parent="jfs6eCbpeO65IJsUBb_G-49" source="jfs6eCbpeO65IJsUBb_G-3" target="jfs6eCbpeO65IJsUBb_G-9" edge="1">
          <mxGeometry width="50" height="50" relative="1" as="geometry">
            <mxPoint x="210" y="-130" as="sourcePoint" />
            <mxPoint x="248" y="-98" as="targetPoint" />
          </mxGeometry>
        </mxCell>
        <mxCell id="jfs6eCbpeO65IJsUBb_G-36" value="" style="endArrow=none;html=1;rounded=0;entryX=0;entryY=0.5;entryDx=0;entryDy=0;exitX=1;exitY=0.5;exitDx=0;exitDy=0;" parent="jfs6eCbpeO65IJsUBb_G-49" source="jfs6eCbpeO65IJsUBb_G-3" target="jfs6eCbpeO65IJsUBb_G-10" edge="1">
          <mxGeometry width="50" height="50" relative="1" as="geometry">
            <mxPoint x="260" y="90" as="sourcePoint" />
            <mxPoint x="315" y="123" as="targetPoint" />
          </mxGeometry>
        </mxCell>
        <mxCell id="jfs6eCbpeO65IJsUBb_G-38" value="" style="endArrow=none;html=1;rounded=0;exitX=0.385;exitY=1.003;exitDx=0;exitDy=0;exitPerimeter=0;" parent="jfs6eCbpeO65IJsUBb_G-49" source="jfs6eCbpeO65IJsUBb_G-37" edge="1">
          <mxGeometry width="50" height="50" relative="1" as="geometry">
            <mxPoint x="290" y="60" as="sourcePoint" />
            <mxPoint x="240" y="20" as="targetPoint" />
          </mxGeometry>
        </mxCell>
        <mxCell id="jfs6eCbpeO65IJsUBb_G-80" value="Has" style="rhombus;whiteSpace=wrap;html=1;fillColor=#f8cecc;strokeColor=#b85450;" parent="jfs6eCbpeO65IJsUBb_G-49" vertex="1">
          <mxGeometry x="170" y="140" width="80" height="80" as="geometry" />
        </mxCell>
        <mxCell id="jfs6eCbpeO65IJsUBb_G-78" value="" style="endArrow=none;html=1;rounded=0;entryX=0.355;entryY=1.006;entryDx=0;entryDy=0;entryPerimeter=0;exitX=0.5;exitY=0;exitDx=0;exitDy=0;" parent="jfs6eCbpeO65IJsUBb_G-49" source="jfs6eCbpeO65IJsUBb_G-80" target="jfs6eCbpeO65IJsUBb_G-3" edge="1">
          <mxGeometry width="50" height="50" relative="1" as="geometry">
            <mxPoint x="110" y="120" as="sourcePoint" />
            <mxPoint x="140" y="210" as="targetPoint" />
          </mxGeometry>
        </mxCell>
        <mxCell id="jfs6eCbpeO65IJsUBb_G-81" value="1" style="edgeLabel;html=1;align=center;verticalAlign=middle;resizable=0;points=[];" parent="jfs6eCbpeO65IJsUBb_G-78" vertex="1" connectable="0">
          <mxGeometry x="0.688" relative="1" as="geometry">
            <mxPoint as="offset" />
          </mxGeometry>
        </mxCell>
        <mxCell id="jfs6eCbpeO65IJsUBb_G-50" value="Supplies" style="rhombus;whiteSpace=wrap;html=1;fillColor=#f8cecc;strokeColor=#b85450;" parent="1" vertex="1">
          <mxGeometry x="340" y="700" width="80" height="80" as="geometry" />
        </mxCell>
        <mxCell id="jfs6eCbpeO65IJsUBb_G-51" value="" style="endArrow=none;html=1;rounded=0;entryX=1;entryY=0.5;entryDx=0;entryDy=0;exitX=0;exitY=0.5;exitDx=0;exitDy=0;" parent="1" source="jfs6eCbpeO65IJsUBb_G-50" target="jfs6eCbpeO65IJsUBb_G-5" edge="1">
          <mxGeometry width="50" height="50" relative="1" as="geometry">
            <mxPoint x="260" y="430" as="sourcePoint" />
            <mxPoint x="310" y="380" as="targetPoint" />
          </mxGeometry>
        </mxCell>
        <mxCell id="jfs6eCbpeO65IJsUBb_G-57" value="1" style="edgeLabel;html=1;align=center;verticalAlign=middle;resizable=0;points=[];" parent="jfs6eCbpeO65IJsUBb_G-51" vertex="1" connectable="0">
          <mxGeometry x="0.7054" y="-1" relative="1" as="geometry">
            <mxPoint as="offset" />
          </mxGeometry>
        </mxCell>
        <mxCell id="jfs6eCbpeO65IJsUBb_G-52" value="" style="endArrow=none;html=1;rounded=0;entryX=1;entryY=0.5;entryDx=0;entryDy=0;exitX=0;exitY=0.5;exitDx=0;exitDy=0;" parent="1" source="jfs6eCbpeO65IJsUBb_G-2" target="jfs6eCbpeO65IJsUBb_G-50" edge="1">
          <mxGeometry width="50" height="50" relative="1" as="geometry">
            <mxPoint x="260" y="430" as="sourcePoint" />
            <mxPoint x="310" y="380" as="targetPoint" />
          </mxGeometry>
        </mxCell>
        <mxCell id="jfs6eCbpeO65IJsUBb_G-58" value="n" style="edgeLabel;html=1;align=center;verticalAlign=middle;resizable=0;points=[];" parent="jfs6eCbpeO65IJsUBb_G-52" vertex="1" connectable="0">
          <mxGeometry x="-0.0222" y="-1" relative="1" as="geometry">
            <mxPoint as="offset" />
          </mxGeometry>
        </mxCell>
        <mxCell id="jfs6eCbpeO65IJsUBb_G-54" value="Contains" style="rhombus;whiteSpace=wrap;html=1;fillColor=#f8cecc;strokeColor=#b85450;" parent="1" vertex="1">
          <mxGeometry x="370" y="400" width="80" height="80" as="geometry" />
        </mxCell>
        <mxCell id="jfs6eCbpeO65IJsUBb_G-55" value="" style="endArrow=none;html=1;rounded=0;entryX=1;entryY=1;entryDx=0;entryDy=0;exitX=0;exitY=0.5;exitDx=0;exitDy=0;" parent="1" source="jfs6eCbpeO65IJsUBb_G-54" target="jfs6eCbpeO65IJsUBb_G-1" edge="1">
          <mxGeometry width="50" height="50" relative="1" as="geometry">
            <mxPoint x="-120" y="540" as="sourcePoint" />
            <mxPoint x="170" y="310" as="targetPoint" />
          </mxGeometry>
        </mxCell>
        <mxCell id="jfs6eCbpeO65IJsUBb_G-59" value="n" style="edgeLabel;html=1;align=center;verticalAlign=middle;resizable=0;points=[];" parent="jfs6eCbpeO65IJsUBb_G-55" vertex="1" connectable="0">
          <mxGeometry x="0.8044" y="-1" relative="1" as="geometry">
            <mxPoint as="offset" />
          </mxGeometry>
        </mxCell>
        <mxCell id="jfs6eCbpeO65IJsUBb_G-56" value="" style="endArrow=none;html=1;rounded=0;entryX=1;entryY=0.5;entryDx=0;entryDy=0;exitX=0;exitY=0.25;exitDx=0;exitDy=0;" parent="1" source="jfs6eCbpeO65IJsUBb_G-3" target="jfs6eCbpeO65IJsUBb_G-54" edge="1">
          <mxGeometry width="50" height="50" relative="1" as="geometry">
            <mxPoint x="190" y="520" as="sourcePoint" />
            <mxPoint x="-70" y="490" as="targetPoint" />
          </mxGeometry>
        </mxCell>
        <mxCell id="jfs6eCbpeO65IJsUBb_G-60" value="m" style="edgeLabel;html=1;align=center;verticalAlign=middle;resizable=0;points=[];" parent="jfs6eCbpeO65IJsUBb_G-56" vertex="1" connectable="0">
          <mxGeometry x="-0.8145" y="-3" relative="1" as="geometry">
            <mxPoint x="1" as="offset" />
          </mxGeometry>
        </mxCell>
        <mxCell id="jfs6eCbpeO65IJsUBb_G-73" value="Has" style="rhombus;whiteSpace=wrap;html=1;fillColor=#f8cecc;strokeColor=#b85450;" parent="1" vertex="1">
          <mxGeometry x="70" y="230" width="80" height="80" as="geometry" />
        </mxCell>
        <mxCell id="jfs6eCbpeO65IJsUBb_G-74" value="" style="endArrow=none;html=1;rounded=0;exitX=0.5;exitY=0;exitDx=0;exitDy=0;entryX=0;entryY=0.5;entryDx=0;entryDy=0;" parent="1" source="jfs6eCbpeO65IJsUBb_G-73" target="jfs6eCbpeO65IJsUBb_G-4" edge="1">
          <mxGeometry width="50" height="50" relative="1" as="geometry">
            <mxPoint x="-80" y="200" as="sourcePoint" />
            <mxPoint x="-100" y="110" as="targetPoint" />
          </mxGeometry>
        </mxCell>
        <mxCell id="jfs6eCbpeO65IJsUBb_G-75" value="1" style="edgeLabel;html=1;align=center;verticalAlign=middle;resizable=0;points=[];" parent="jfs6eCbpeO65IJsUBb_G-74" vertex="1" connectable="0">
          <mxGeometry x="0.7054" y="-1" relative="1" as="geometry">
            <mxPoint as="offset" />
          </mxGeometry>
        </mxCell>
        <mxCell id="jfs6eCbpeO65IJsUBb_G-76" value="" style="endArrow=none;html=1;rounded=0;entryX=0.5;entryY=1;entryDx=0;entryDy=0;exitX=0.5;exitY=0;exitDx=0;exitDy=0;" parent="1" source="jfs6eCbpeO65IJsUBb_G-1" target="jfs6eCbpeO65IJsUBb_G-73" edge="1">
          <mxGeometry width="50" height="50" relative="1" as="geometry">
            <mxPoint x="580" y="420" as="sourcePoint" />
            <mxPoint x="580" y="390" as="targetPoint" />
          </mxGeometry>
        </mxCell>
        <mxCell id="jfs6eCbpeO65IJsUBb_G-77" value="n" style="edgeLabel;html=1;align=center;verticalAlign=middle;resizable=0;points=[];" parent="jfs6eCbpeO65IJsUBb_G-76" vertex="1" connectable="0">
          <mxGeometry x="-0.0222" y="-1" relative="1" as="geometry">
            <mxPoint as="offset" />
          </mxGeometry>
        </mxCell>
        <mxCell id="jfs6eCbpeO65IJsUBb_G-82" value="" style="endArrow=none;html=1;rounded=0;entryX=0.439;entryY=-0.015;entryDx=0;entryDy=0;entryPerimeter=0;exitX=0.5;exitY=1;exitDx=0;exitDy=0;" parent="1" source="jfs6eCbpeO65IJsUBb_G-80" target="jfs6eCbpeO65IJsUBb_G-2" edge="1">
          <mxGeometry width="50" height="50" relative="1" as="geometry">
            <mxPoint x="570" y="540" as="sourcePoint" />
            <mxPoint x="563" y="480" as="targetPoint" />
          </mxGeometry>
        </mxCell>
        <mxCell id="jfs6eCbpeO65IJsUBb_G-83" value="1" style="edgeLabel;html=1;align=center;verticalAlign=middle;resizable=0;points=[];" parent="jfs6eCbpeO65IJsUBb_G-82" vertex="1" connectable="0">
          <mxGeometry x="0.688" relative="1" as="geometry">
            <mxPoint as="offset" />
          </mxGeometry>
        </mxCell>
        <mxCell id="jfs6eCbpeO65IJsUBb_G-37" value="Description" style="ellipse;whiteSpace=wrap;html=1;fillColor=#e1d5e7;strokeColor=#9673a6;" parent="1" vertex="1">
          <mxGeometry x="720" y="310" width="120" height="80" as="geometry" />
        </mxCell>
        <mxCell id="jfs6eCbpeO65IJsUBb_G-16" value="SupplierName" style="ellipse;whiteSpace=wrap;html=1;fillColor=#e1d5e7;strokeColor=#9673a6;" parent="1" vertex="1">
          <mxGeometry x="-50" y="640" width="120" height="80" as="geometry" />
        </mxCell>
        <mxCell id="jfs6eCbpeO65IJsUBb_G-26" value="" style="endArrow=none;html=1;rounded=0;entryX=1;entryY=1;entryDx=0;entryDy=0;exitX=0;exitY=0.5;exitDx=0;exitDy=0;" parent="1" source="jfs6eCbpeO65IJsUBb_G-5" target="jfs6eCbpeO65IJsUBb_G-16" edge="1">
          <mxGeometry width="50" height="50" relative="1" as="geometry">
            <mxPoint x="132" y="718" as="sourcePoint" />
            <mxPoint x="136" y="685" as="targetPoint" />
          </mxGeometry>
        </mxCell>
        <mxCell id="jfs6eCbpeO65IJsUBb_G-84" value="" style="group;" parent="1" vertex="1" connectable="0">
          <mxGeometry x="450" y="70" width="440" height="240" as="geometry" />
        </mxCell>
        <mxCell id="jfs6eCbpeO65IJsUBb_G-85" value="BILLITEM" style="rounded=0;whiteSpace=wrap;html=1;fillColor=#dae8fc;strokeColor=#6c8ebf;" parent="jfs6eCbpeO65IJsUBb_G-84" vertex="1">
          <mxGeometry x="160" y="20" width="120" height="60" as="geometry" />
        </mxCell>
        <mxCell id="jfs6eCbpeO65IJsUBb_G-87" value="Quanity" style="ellipse;whiteSpace=wrap;html=1;fillColor=#e1d5e7;strokeColor=#9673a6;" parent="jfs6eCbpeO65IJsUBb_G-84" vertex="1">
          <mxGeometry x="260" y="110" width="120" height="80" as="geometry" />
        </mxCell>
        <mxCell id="jfs6eCbpeO65IJsUBb_G-88" value="UnitPrice" style="ellipse;whiteSpace=wrap;html=1;fillColor=#e1d5e7;strokeColor=#9673a6;" parent="jfs6eCbpeO65IJsUBb_G-84" vertex="1">
          <mxGeometry x="320" width="120" height="80" as="geometry" />
        </mxCell>
        <mxCell id="jfs6eCbpeO65IJsUBb_G-90" value="" style="endArrow=none;html=1;rounded=0;entryX=0.373;entryY=0.032;entryDx=0;entryDy=0;exitX=0.75;exitY=1;exitDx=0;exitDy=0;entryPerimeter=0;" parent="jfs6eCbpeO65IJsUBb_G-84" source="jfs6eCbpeO65IJsUBb_G-85" target="jfs6eCbpeO65IJsUBb_G-87" edge="1">
          <mxGeometry width="50" height="50" relative="1" as="geometry">
            <mxPoint x="210" y="-130" as="sourcePoint" />
            <mxPoint x="248" y="-98" as="targetPoint" />
          </mxGeometry>
        </mxCell>
        <mxCell id="jfs6eCbpeO65IJsUBb_G-91" value="" style="endArrow=none;html=1;rounded=0;entryX=0;entryY=0.5;entryDx=0;entryDy=0;exitX=1;exitY=0.5;exitDx=0;exitDy=0;" parent="jfs6eCbpeO65IJsUBb_G-84" source="jfs6eCbpeO65IJsUBb_G-85" target="jfs6eCbpeO65IJsUBb_G-88" edge="1">
          <mxGeometry width="50" height="50" relative="1" as="geometry">
            <mxPoint x="260" y="90" as="sourcePoint" />
            <mxPoint x="315" y="123" as="targetPoint" />
          </mxGeometry>
        </mxCell>
        <mxCell id="jfs6eCbpeO65IJsUBb_G-101" value="Has" style="rhombus;whiteSpace=wrap;html=1;fillColor=#f8cecc;strokeColor=#b85450;" parent="jfs6eCbpeO65IJsUBb_G-84" vertex="1">
          <mxGeometry x="150" y="160" width="80" height="80" as="geometry" />
        </mxCell>
        <mxCell id="jfs6eCbpeO65IJsUBb_G-102" value="" style="endArrow=none;html=1;rounded=0;entryX=0.25;entryY=1;entryDx=0;entryDy=0;exitX=0.5;exitY=0;exitDx=0;exitDy=0;" parent="jfs6eCbpeO65IJsUBb_G-84" source="jfs6eCbpeO65IJsUBb_G-101" target="jfs6eCbpeO65IJsUBb_G-85" edge="1">
          <mxGeometry width="50" height="50" relative="1" as="geometry">
            <mxPoint x="-291" y="323" as="sourcePoint" />
            <mxPoint x="-70" y="240" as="targetPoint" />
          </mxGeometry>
        </mxCell>
        <mxCell id="jfs6eCbpeO65IJsUBb_G-104" value="1" style="edgeLabel;html=1;align=center;verticalAlign=middle;resizable=0;points=[];" parent="jfs6eCbpeO65IJsUBb_G-102" vertex="1" connectable="0">
          <mxGeometry x="0.7042" y="1" relative="1" as="geometry">
            <mxPoint as="offset" />
          </mxGeometry>
        </mxCell>
        <mxCell id="jfs6eCbpeO65IJsUBb_G-93" value="Has" style="rhombus;whiteSpace=wrap;html=1;fillColor=#f8cecc;strokeColor=#b85450;" parent="1" vertex="1">
          <mxGeometry x="330" y="220" width="80" height="80" as="geometry" />
        </mxCell>
        <mxCell id="jfs6eCbpeO65IJsUBb_G-94" value="" style="endArrow=none;html=1;rounded=0;entryX=0;entryY=0.5;entryDx=0;entryDy=0;exitX=0.5;exitY=0;exitDx=0;exitDy=0;" parent="1" source="jfs6eCbpeO65IJsUBb_G-93" target="jfs6eCbpeO65IJsUBb_G-85" edge="1">
          <mxGeometry width="50" height="50" relative="1" as="geometry">
            <mxPoint x="535" y="190" as="sourcePoint" />
            <mxPoint x="565" y="280" as="targetPoint" />
          </mxGeometry>
        </mxCell>
        <mxCell id="jfs6eCbpeO65IJsUBb_G-95" value="n" style="edgeLabel;html=1;align=center;verticalAlign=middle;resizable=0;points=[];" parent="jfs6eCbpeO65IJsUBb_G-94" vertex="1" connectable="0">
          <mxGeometry x="0.688" relative="1" as="geometry">
            <mxPoint as="offset" />
          </mxGeometry>
        </mxCell>
        <mxCell id="jfs6eCbpeO65IJsUBb_G-96" value="" style="endArrow=none;html=1;rounded=0;entryX=0.5;entryY=1;entryDx=0;entryDy=0;exitX=0.822;exitY=0.051;exitDx=0;exitDy=0;exitPerimeter=0;" parent="1" source="jfs6eCbpeO65IJsUBb_G-1" target="jfs6eCbpeO65IJsUBb_G-93" edge="1">
          <mxGeometry width="50" height="50" relative="1" as="geometry">
            <mxPoint x="390" y="250" as="sourcePoint" />
            <mxPoint x="653" y="160" as="targetPoint" />
          </mxGeometry>
        </mxCell>
        <mxCell id="jfs6eCbpeO65IJsUBb_G-98" value="1" style="edgeLabel;html=1;align=center;verticalAlign=middle;resizable=0;points=[];" parent="jfs6eCbpeO65IJsUBb_G-96" vertex="1" connectable="0">
          <mxGeometry x="-0.6957" y="4" relative="1" as="geometry">
            <mxPoint as="offset" />
          </mxGeometry>
        </mxCell>
        <mxCell id="jfs6eCbpeO65IJsUBb_G-86" value="&lt;p style=&quot;line-height: 120%;&quot;&gt;&lt;u&gt;BillItemID&lt;/u&gt;&lt;/p&gt;" style="ellipse;whiteSpace=wrap;html=1;fillColor=#e1d5e7;strokeColor=#9673a6;" parent="1" vertex="1">
          <mxGeometry x="630" y="-40" width="120" height="80" as="geometry" />
        </mxCell>
        <mxCell id="jfs6eCbpeO65IJsUBb_G-89" value="" style="endArrow=none;html=1;rounded=0;entryX=0.5;entryY=0;entryDx=0;entryDy=0;exitX=0.431;exitY=0.98;exitDx=0;exitDy=0;exitPerimeter=0;" parent="1" source="jfs6eCbpeO65IJsUBb_G-86" target="jfs6eCbpeO65IJsUBb_G-85" edge="1">
          <mxGeometry width="50" height="50" relative="1" as="geometry">
            <mxPoint x="555" y="-30" as="sourcePoint" />
            <mxPoint x="590" y="-60" as="targetPoint" />
          </mxGeometry>
        </mxCell>
        <mxCell id="jfs6eCbpeO65IJsUBb_G-105" value="" style="endArrow=none;html=1;rounded=0;entryX=0.5;entryY=1;entryDx=0;entryDy=0;exitX=0.316;exitY=0.029;exitDx=0;exitDy=0;exitPerimeter=0;" parent="1" source="jfs6eCbpeO65IJsUBb_G-3" target="jfs6eCbpeO65IJsUBb_G-101" edge="1">
          <mxGeometry width="50" height="50" relative="1" as="geometry">
            <mxPoint x="640" y="420" as="sourcePoint" />
            <mxPoint x="650" y="160" as="targetPoint" />
          </mxGeometry>
        </mxCell>
        <mxCell id="jfs6eCbpeO65IJsUBb_G-107" value="1" style="edgeLabel;html=1;align=center;verticalAlign=middle;resizable=0;points=[];" parent="jfs6eCbpeO65IJsUBb_G-105" vertex="1" connectable="0">
          <mxGeometry x="-0.677" y="-1" relative="1" as="geometry">
            <mxPoint as="offset" />
          </mxGeometry>
        </mxCell>
      </root>
    </mxGraphModel>
  </diagram>
</mxfile>
